<svg xmlns="http://www.w3.org/2000/svg" xmlns:xlink="http://www.w3.org/1999/xlink" xml:space="preserve" id="svg5" version="1.1" viewBox="0 0 180 180" height="180" width="180">
  <style type="text/css">
    #logo { fill: rgb(61,92,203); transform-origin: center; transform: scale(1.06);}
    rect {transform-origin: center;transform: scale(.9);}
  </style>
  <g id="layer1">
    <rect rx="50%" fill="white" height="100%" width="100%"></rect>
    <path d="M 76.67288,173.62539 C 62.86934,171.18623 50.238238,165.91808 39.533458,158.13537 34.432576,154.42687 23.335321,142.93476 19.967164,137.87289 13.088551,127.53527 8.1576983,115.11748 6.1399919,103.05072 4.8980178,95.623165 5.2232871,80.130145 6.7693637,73.072885 10.525666,55.926769 17.903962,42.369657 30.136807,30.136812 42.53875,17.73487 56.145574,10.397491 73.67288,6.66031 c 7.202766,-1.5357773 25.197234,-1.5357773 32.4,0 16.37366,3.491201 29.95758,10.470583 41.46834,21.306332 14.72073,13.857473 23.52426,30.885333 26.37782,51.020191 0.90617,6.393954 0.37841,21.626327 -0.95923,27.686057 -3.63253,16.45582 -10.58975,29.71108 -21.76078,41.45973 -11.64858,12.2509 -24.33514,19.62116 -41.43649,24.07255 -6.28766,1.63664 -8.07435,1.83925 -17.78966,2.01738 -7.15491,0.13118 -12.318786,-0.0704 -15.3,-0.59716 z m 39.83065,-38.74902 25.56935,-14.69652 V 89.854645 59.529445 L 116.49966,44.851165 C 102.43439,36.778111 90.576416,30.089829 90.148604,29.988316 89.720798,29.886803 77.743598,36.496948 63.532616,44.677526 L 37.694463,59.551305 37.533671,89.546647 c -0.139699,26.060633 -0.04273,30.094553 0.739209,30.751603 2.244641,1.88614 50.80905,29.51532 51.680652,29.40206 0.539358,-0.0701 12.486858,-6.74086 26.549998,-14.82394 z m -43.13065,-15.3633 c -8.91,-5.1539 -16.5375,-9.64442 -16.95,-9.97893 -1.085379,-0.88016 -1.085379,-38.437991 0,-39.332267 2.505654,-2.06448 33.298548,-19.28525 34.001856,-19.015365 0.997776,0.38288 27.820724,15.822741 31.261044,17.994525 l 2.32688,1.46889 0.0434,19.194174 0.0434,19.194173 -2.26329,1.44873 c -3.28433,2.10228 -30.299336,17.65617 -31.363292,18.0574 -0.524772,0.1979 -7.654104,-3.56744 -17.1,-9.03133 z" id="logo"></path>
  </g>
</svg>